<?xml version="1.0" standalone="no"?>
<!DOCTYPE svg PUBLIC "-//W3C//DTD SVG 20010904//EN"
 "http://www.w3.org/TR/2001/REC-SVG-20010904/DTD/svg10.dtd">
<svg version="1.0" xmlns="http://www.w3.org/2000/svg"
 width="500.000000pt" height="500.000000pt" viewBox="0 0 500.000000 500.000000"
 preserveAspectRatio="xMidYMid meet">
<metadata>
Created by potrace 1.14, written by Peter Selinger 2001-2017
</metadata>
<g transform="translate(0.000000,500.000000) scale(0.100000,-0.100000)"
fill="#000000" stroke="none">
<path d="M2209 3513 c0 -5 -2 -336 -4 -738 -1 -401 -5 -741 -9 -755 -3 -14 -9
-38 -12 -55 -8 -38 -39 -100 -71 -143 -88 -117 -304 -144 -444 -56 -106 66
-160 171 -174 340 -2 22 -4 42 -4 45 -1 4 -58 -10 -128 -30 -146 -42 -138 -32
-117 -156 38 -221 152 -366 344 -439 82 -30 120 -37 246 -41 153 -5 291 27
389 90 115 75 195 189 237 342 22 76 22 93 26 841 l3 762 -140 0 c-78 0 -141
-3 -142 -7z"/>
<path d="M2554 2523 c0 -549 3 -1000 7 -1003 12 -8 898 -4 964 4 305 39 517
248 541 531 15 188 -96 412 -246 496 -22 13 -40 25 -40 29 0 3 16 23 36 44 97
103 154 235 160 372 8 204 -83 360 -262 449 -137 67 -188 73 -704 74 l-456 2
0 -998z m846 756 c114 -5 211 -64 258 -156 19 -35 24 -55 36 -134 10 -64 -29
-181 -76 -231 -83 -87 -126 -95 -488 -96 l-295 0 1 301 c1 166 2 307 3 312 1
9 383 12 561 4z m137 -855 c176 -46 266 -209 228 -414 -14 -73 -77 -162 -145
-205 -75 -47 -96 -49 -447 -50 -293 -1 -332 1 -335 14 -3 13 -2 640 1 664 1 4
146 7 324 6 239 -1 335 -4 374 -15z"/>
<path d="M1004 3170 c-32 -13 -84 -78 -85 -108 -5 -106 52 -174 147 -174 81 0
147 65 146 144 -1 60 -18 91 -64 121 -43 28 -101 35 -144 17z"/>
<path d="M800 2580 l0 -79 82 -3 83 -3 0 -505 0 -505 100 0 100 0 0 588 0 587
-182 0 -183 0 0 -80z"/>
</g>
</svg>
